<?xml version="1.0"?>
<svg xmlns="http://www.w3.org/2000/svg" xmlns:xlink="http://www.w3.org/1999/xlink" version="1.1" id="Capa_1" x="0px" y="0px" viewBox="0 0 512 512" style="enable-background:new 0 0 512 512;" xml:space="preserve" width="512px" height="512px" class=""><g><g>
	<g>
		<path d="M503.227,107.641l-95.813-95.919c-15.587-15.605-40.965-15.617-56.569-0.032l-76.384,76.3H232c-9.925,0-18-8.075-18-18    s8.075-18,18-18h11c5.522,0,10-4.477,10-10s-4.478-10-10-10h-11c-20.953,0-38,17.047-38,38s17.047,38,38,38h22.455    c-4.73,4.881-7.615,11.085-8.296,17.771H10c-4.045,0-7.691,2.437-9.239,6.173c-1.547,3.736-0.691,8.038,2.168,10.898    l24.929,24.929l-24.929,24.93c0.055,0.031,0.099,0.06,0.153,0.09C1.186,194.601,0,197.155,0,199.991v248c0,5.523,4.478,10,10,10    h236v14c0,22.056,17.944,40,40,40h186c22.056,0,40-17.944,40-40V128.842C512,120.836,508.884,113.307,503.227,107.641z     M246,356.299c-8.013,8.956-18.022,16.188-29.001,20.93c-5.07,2.189-7.405,8.075-5.216,13.145    c1.632,3.778,5.315,6.038,9.186,6.038c1.323,0,2.668-0.264,3.96-0.822c7.455-3.22,14.546-7.369,21.071-12.28v54.682H20v-0.001    v-228h226V356.299z M246,189.991H33.914l15.157-15.157c3.906-3.906,3.906-10.238,0-14.143l-14.929-14.929H246V189.991z     M492.001,471.991L492.001,471.991c-0.001,11.028-8.973,20-20.001,20H286c-11.028,0-20-8.972-20-20v-24V128.855    c0-2.673,1.042-5.186,2.933-7.075l13.805-13.79h63.765c4.281,13.882,17.228,24,32.497,24c18.748,0,34-15.252,34-34    s-15.252-34-34-34c-15.269,0-28.217,10.118-32.497,24H302.76l62.219-62.15c3.898-3.895,9.016-5.841,14.135-5.841    c5.125,0,10.251,1.953,14.149,5.856l95.813,95.918c1.886,1.889,2.925,4.399,2.925,7.068V471.991z M370.333,87.991h-1.112    c2.526-2.47,5.976-4,9.779-4c7.72,0,14,6.28,14,14c0,7.72-6.28,14-14,14c-3.804,0-7.254-1.53-9.779-4h1.112    c5.522,0,10-4.477,10-10C380.333,92.468,375.856,87.991,370.333,87.991z" data-original="#FFFFFF" class="active-path" data-old_color=" rgb(255, 255, 255)" fill="#FFFFFF"/>
	</g>
</g><g>
	<g>
		<path d="M397.856,389.509c-17.645,0-32,15.36-32,34.241c0,7.853-5.383,14.241-12,14.241s-12-6.389-12-14.241    s5.383-14.241,12-14.241c5.522,0,10-4.477,10-10s-4.478-10-10-10c-17.645,0-32,15.36-32,34.241c0,18.881,14.355,34.241,32,34.241    c17.645,0,32-15.36,32-34.241c0-7.853,5.383-14.241,12-14.241s12,6.388,12,14.241c0,7.853-5.383,14.241-12,14.241    c-5.522,0-10,4.477-10,10s4.478,10,10,10c17.645,0,32-15.36,32-34.241C429.856,404.869,415.5,389.509,397.856,389.509z" data-original="#FFFFFF" class="active-path" data-old_color=" rgb(255, 255, 255)" fill="#FFFFFF"/>
	</g>
</g><g>
	<g>
		<path d="M419.856,235.53c-5.522,0-10,4.477-10,10v18.344c0,0.771-0.627,1.397-1.397,1.397h-76.603c-5.522,0-10,4.477-10,10    s4.478,10,10,10h76.603c11.799,0,21.397-9.599,21.397-21.397V245.53C429.856,240.007,425.378,235.53,419.856,235.53z" data-original="#FFFFFF" class="active-path" data-old_color=" rgb(255, 255, 255)" fill="#FFFFFF"/>
	</g>
</g><g>
	<g>
		<path d="M419.856,166.695c-5.522,0-10,4.477-10,10v23.624c0,0.771-0.627,1.397-1.397,1.397h-22.603V187.81c0-5.523-4.478-10-10-10    c-5.522,0-10,4.477-10,10v13.906h-22.604c-0.771,0-1.396-0.626-1.396-1.397v-23.624c0-5.523-4.478-10-10-10    c-5.522,0-10,4.477-10,10v23.624c0,11.798,9.599,21.397,21.396,21.397h65.206c11.799,0,21.397-9.599,21.397-21.397v-23.624    C429.856,171.172,425.378,166.695,419.856,166.695z" data-original="#FFFFFF" class="active-path" data-old_color=" rgb(255, 255, 255)" fill="#FFFFFF"/>
	</g>
</g><g>
	<g>
		<path d="M423.368,362.462l-8.636-3.239c0.297-0.946,0.458-1.952,0.458-2.995v-37.971h-0.001l8.179-3.067    c5.171-1.939,7.791-7.703,5.852-12.875c-1.939-5.17-7.698-7.79-12.875-5.852l-88,33c-3.902,1.464-6.488,5.195-6.488,9.363    c0,4.168,2.586,7.899,6.488,9.363l88,33c1.157,0.434,2.344,0.64,3.51,0.64c4.049,0,7.859-2.477,9.365-6.492    C431.159,370.166,428.539,364.401,423.368,362.462z M395.189,351.896l-34.853-13.069l34.853-13.07V351.896z" data-original="#FFFFFF" class="active-path" data-old_color=" rgb(255, 255, 255)" fill="#FFFFFF"/>
	</g>
</g><g>
	<g>
		<path d="M149.167,376.293c-29.179-13.574-48.033-43.128-48.033-75.293v-14.904c12.276-4.176,21.135-15.808,21.135-29.477    c0-17.167-13.967-31.134-31.135-31.134C73.967,225.484,60,239.451,60,256.618c0,13.669,8.859,25.301,21.134,29.477V301    c0,39.913,23.394,76.585,59.598,93.427c1.365,0.635,2.799,0.936,4.211,0.936c3.77,0,7.379-2.142,9.074-5.785    C156.346,384.571,154.175,378.623,149.167,376.293z M91.134,256.053c-4.307,0-7.968,2.728-9.375,6.547    c-1.108-1.73-1.759-3.78-1.759-5.982c0-6.14,4.994-11.134,11.134-11.134c6.14,0,11.135,4.995,11.135,11.134    c0,2.203-0.651,4.253-1.76,5.983C99.102,258.782,95.441,256.053,91.134,256.053z" data-original="#FFFFFF" class="active-path" data-old_color=" rgb(255, 255, 255)" fill="#FFFFFF"/>
	</g>
</g><g>
	<g>
		<path d="M184.29,383.991h-0.165c-5.522,0-10,4.477-10,10s4.478,10,10,10h0.165c5.522,0,10-4.477,10-10    S189.813,383.991,184.29,383.991z" data-original="#FFFFFF" class="active-path" data-old_color=" rgb(255, 255, 255)" fill="#FFFFFF"/>
	</g>
</g><g>
	<g>
		<path d="M289.069,34.921c-1.859-1.86-4.439-2.93-7.069-2.93s-5.21,1.07-7.07,2.93c-1.86,1.86-2.93,4.44-2.93,7.07    c0,2.63,1.069,5.21,2.93,7.07c1.861,1.86,4.44,2.93,7.07,2.93s5.21-1.07,7.069-2.93c1.86-1.86,2.931-4.44,2.931-7.07    C292,39.361,290.93,36.781,289.069,34.921z" data-original="#FFFFFF" class="active-path" data-old_color=" rgb(255, 255, 255)" fill="#FFFFFF"/>
	</g>
</g></g> </svg>
